<svg xmlns="http://www.w3.org/2000/svg"  viewBox="0 0 48 48" width="100px" height="100px"><linearGradient id="SVGID_1_" x1="34.147" x2="13.853" y1="6.424" y2="41.576" gradientUnits="userSpaceOnUse"><stop offset="0" stop-color="#60affe"/><stop offset=".033" stop-color="#6ab4fe"/><stop offset=".197" stop-color="#97cbfe"/><stop offset=".362" stop-color="#bddeff"/><stop offset=".525" stop-color="#daecff"/><stop offset=".687" stop-color="#eef7ff"/><stop offset=".846" stop-color="#fbfdff"/><stop offset="1" stop-color="#fff"/></linearGradient><path fill="url(#SVGID_1_)" d="M40.5,23.34v11.812c0,2.677-2.239,4.848-5,4.848h-23c-2.761,0-5-2.171-5-4.848v-1.661V28.23V12.848	C7.5,10.171,9.739,8,12.5,8h23c2.761,0,5,2.171,5,4.848v5.354V23.34z"/><path fill="none" stroke="#2e9bfe" stroke-linecap="round" stroke-linejoin="round" stroke-width="3" d="M7.5,28.362V12.5c0-2.761,2.239-5,5-5h23c2.761,0,5,2.239,5,5v5.521"/><path fill="none" stroke="#2e9bfe" stroke-linecap="round" stroke-linejoin="round" stroke-width="3" d="M40.5,23.319V35.5c0,2.761-2.239,5-5,5h-23c-2.761,0-5-2.239-5-5v-1.713"/><path fill="none" stroke="#2e9bfe" stroke-linecap="round" stroke-linejoin="round" stroke-width="3" d="M32.5,21.5h-6.297c-0.941,0-1.703-0.762-1.703-1.703V13.5h-7c-1.105,0-2,0.895-2,2v17c0,1.105,0.895,2,2,2h13	c1.105,0,2-0.895,2-2v-5.543"/><line x1="32.5" x2="24.5" y1="21.5" y2="13.5" fill="none" stroke="#2e9bfe" stroke-linecap="round" stroke-linejoin="round" stroke-width="3"/></svg>